<svg xmlns="http://www.w3.org/2000/svg" width="20.85" height="21.66" viewBox="0 0 22 23" fill="none">
  <path fill-rule="evenodd" clip-rule="evenodd" d="M15.495 15.5867C17.1984 14.0451 18.2733 11.859 18.2733 9.39941C18.2733 4.6253 14.2238 0.881744 9.38874 0.881744C4.55368 0.881744 0.504211 4.6253 0.504211 9.39941C0.504211 14.1735 4.55368 17.9171 9.38874 17.9171C11.1961 17.9171 12.8936 17.394 14.311 16.4896L20.2497 22.5373L21.3564 21.5556L15.495 15.5867ZM14.4577 14.5304C15.8958 13.2465 16.7939 11.4226 16.7939 9.39941C16.7939 5.51225 13.4785 2.36108 9.38874 2.36108C5.29897 2.36108 1.98355 5.51225 1.98355 9.39941C1.98355 13.2866 5.29897 16.4377 9.38874 16.4377C11.1506 16.4377 12.7687 15.8529 14.04 14.8764L14.4449 14.5173L14.4577 14.5304Z" fill="#353839"/>
</svg>